<?xml version="1.0" standalone="no"?>
<!DOCTYPE svg PUBLIC "-//W3C//DTD SVG 20010904//EN"
 "http://www.w3.org/TR/2001/REC-SVG-20010904/DTD/svg10.dtd">
<svg version="1.0" xmlns="http://www.w3.org/2000/svg"
 width="1024.000000pt" height="1024.000000pt" viewBox="0 0 1024.000000 1024.000000"
 preserveAspectRatio="xMidYMid meet">
<defs>
<mask id="griffin-cutout" maskUnits="userSpaceOnUse" x="0" y="0" width="1024" height="1024">
<rect width="1024" height="1024" fill="white"/>
<g transform="translate(0.000000,1024.000000) scale(0.100000,-0.100000)"
fill="black" stroke="none">
<path d="M4985 8763 c-766 -446 -1690 -731 -2668 -823 -116 -11 -213 -20 -214
-20 -2 0 -3 -713 -3 -1583 0 -1862 -3 -1790 100 -2222 223 -936 879 -1718
1975 -2356 197 -114 565 -301 783 -397 l162 -71 108 45 c156 67 526 248 687
338 514 287 864 538 1183 851 574 561 880 1139 1009 1905 l27 165 3 1662 4
1661 -38 6 c-21 3 -81 8 -133 11 -227 16 -614 75 -918 141 -625 136 -1286 388
-1799 687 -72 42 -133 77 -135 76 -2 0 -61 -34 -133 -76z m1895 -1209 c0 -8
-5 -12 -10 -9 -6 4 -8 11 -5 16 9 14 15 11 15 -7z m-50 -27 c0 -2 -10 -12 -22
-23 l-23 -19 19 23 c18 21 26 27 26 19z m57 -29 c-3 -7 -5 -2 -5 12 0 14 2 19
5 13 2 -7 2 -19 0 -25z m10 -55 c-3 -10 -5 -4 -5 12 0 17 2 24 5 18 2 -7 2
-21 0 -30z m10 -80 c-3 -10 -5 -2 -5 17 0 19 2 27 5 18 2 -10 2 -26 0 -35z
m10 -140 c-2 -21 -4 -6 -4 32 0 39 2 55 4 38 2 -18 2 -50 0 -70z m-167 -182
c-25 -190 -115 -398 -246 -570 l-33 -43 64 -74 c130 -149 220 -316 299 -554
76 -230 107 -398 171 -919 46 -378 74 -529 136 -717 28 -85 49 -157 47 -159
-2 -2 -51 10 -108 26 -263 77 -466 192 -631 358 l-96 97 -7 -111 c-21 -360
-176 -643 -505 -926 -63 -54 -120 -99 -127 -99 -28 0 -101 118 -179 291 l-48
107 -65 -97 c-85 -127 -120 -171 -211 -262 -183 -182 -399 -306 -666 -384 -90
-26 -185 -42 -185 -31 0 3 11 34 25 68 20 48 22 64 13 71 -10 6 -10 8 1 5 10
-3 39 44 92 151 78 157 181 337 258 449 45 67 49 77 25 68 -9 -3 -12 -2 -9 5
4 5 12 8 18 6 7 -2 19 1 27 8 8 7 62 25 120 39 136 35 305 117 383 186 31 28
54 57 51 62 -4 7 -2 8 5 4 27 -17 116 120 155 236 36 106 33 119 -13 61 -42
-53 -141 -149 -211 -204 -116 -93 -319 -186 -455 -208 -38 -7 -80 -14 -92 -17
-32 -6 -29 5 16 72 57 86 136 247 166 339 31 95 50 265 32 277 -13 8 -13 8 19
12 33 4 130 73 180 129 73 81 143 243 131 303 -2 13 0 21 4 18 5 -3 9 13 9 35
0 22 -4 43 -10 46 -5 3 -10 16 -9 28 1 20 2 20 9 -3 15 -47 10 102 -5 168 -20
84 -55 163 -68 155 -6 -3 -7 -1 -3 6 12 19 -69 134 -141 202 -36 33 -111 90
-167 126 -55 36 -131 86 -168 110 -81 53 -179 156 -212 221 -30 59 -66 168
-66 199 0 21 4 23 53 23 49 1 98 8 160 25 25 7 27 5 27 -23 0 -60 52 -146 114
-188 20 -14 64 -32 99 -41 61 -16 67 -16 133 2 58 16 77 27 119 69 50 50 85
125 85 181 0 22 4 23 108 27 94 4 115 8 172 36 36 17 77 43 90 57 l25 26 -25
-9 c-73 -27 -176 -21 -395 24 -121 25 -345 23 -460 -5 -332 -78 -402 -65 -361
65 30 96 148 191 303 245 197 69 426 83 788 49 262 -24 397 -23 545 5 206 39
450 139 635 259 l70 45 3 -77 c2 -42 -2 -115 -8 -161z m-1522 102 c-21 -2 -57
-2 -80 0 -24 2 -7 4 37 4 44 0 63 -2 43 -4z m159 -9 c-3 -3 -12 -4 -19 -1 -8
3 -5 6 6 6 11 1 17 -2 13 -5z m-1260 -490 c-3 -3 -12 -4 -19 -1 -8 3 -5 6 6 6
11 1 17 -2 13 -5z m2621 -99 c-6 -14 -13 -23 -15 -21 -5 5 15 46 22 46 3 0 -1
-11 -7 -25z m-2423 -112 c18 -180 80 -321 194 -440 67 -70 153 -136 178 -136
7 0 11 -3 8 -6 -3 -2 43 -36 102 -74 60 -38 118 -78 130 -89 12 -11 26 -17 33
-13 6 4 9 1 8 -7 -2 -7 4 -12 12 -10 8 2 12 0 8 -4 -4 -4 11 -29 34 -56 22
-27 55 -76 73 -109 17 -32 35 -56 40 -52 4 5 5 3 2 -3 -4 -6 0 -42 8 -80 47
-221 -18 -427 -166 -530 l-40 -28 -42 44 c-51 52 -151 101 -262 126 -99 23
-437 26 -553 5 -40 -7 -75 -11 -76 -10 -2 2 -6 46 -8 96 l-5 93 41 -8 c72 -13
177 -8 336 17 176 26 279 25 440 -9 52 -10 96 -17 99 -14 7 7 -16 151 -33 209
-24 78 -87 167 -160 228 -130 107 -372 211 -592 256 -231 47 -395 35 -550 -39
-87 -42 -181 -124 -205 -179 -8 -17 -17 -31 -20 -31 -11 0 -51 134 -68 233
-10 53 -15 97 -12 97 4 0 12 30 19 66 33 174 164 322 358 404 35 14 61 30 56
35 -4 4 -2 5 5 1 6 -3 47 3 90 15 163 45 296 68 405 68 l106 1 7 -67z m860
-54 c-10 -15 -25 -10 -19 6 4 8 10 12 15 9 5 -3 7 -10 4 -15z m1560 -19 c3 -5
1 -10 -4 -10 -6 0 -11 5 -11 10 0 6 2 10 4 10 3 0 8 -4 11 -10z m302 -732 c-3
-8 -6 -5 -6 6 -1 11 2 17 5 13 3 -3 4 -12 1 -19z m21 -83 c0 -16 -2 -15 -8 5
-4 14 -8 34 -8 45 0 16 2 15 8 -5 4 -14 8 -34 8 -45z m-2653 35 c3 -6 -1 -7
-9 -4 -18 7 -21 14 -7 14 6 0 13 -4 16 -10z m-882 -25 c-3 -9 -8 -14 -10 -11
-3 3 -2 9 2 15 9 16 15 13 8 -4z m3547 -55 c0 -11 -2 -20 -4 -20 -2 0 -6 9 -9
20 -3 11 -1 20 4 20 5 0 9 -9 9 -20z m7 -72 c-3 -7 -5 -2 -5 12 0 14 2 19 5
13 2 -7 2 -19 0 -25z m10 -60 c-3 -7 -5 -2 -5 12 0 14 2 19 5 13 2 -7 2 -19 0
-25z m-3754 -51 c4 3 7 4 7 0 0 -18 -21 -14 -30 5 -10 21 -10 21 3 6 8 -10 17
-15 20 -11z m1954 -59 c-3 -8 -6 -5 -6 6 -1 11 2 17 5 13 3 -3 4 -12 1 -19z
m1820 -10 c-3 -8 -6 -5 -6 6 -1 11 2 17 5 13 3 -3 4 -12 1 -19z m10 -70 c-3
-8 -6 -5 -6 6 -1 11 2 17 5 13 3 -3 4 -12 1 -19z m-1827 -14 c0 -14 -4 -23 -9
-20 -5 3 -7 15 -4 26 7 28 13 25 13 -6z m1837 -91 c-3 -10 -5 -2 -5 17 0 19 2
27 5 18 2 -10 2 -26 0 -35z m20 -155 c-3 -7 -5 -2 -5 12 0 14 2 19 5 13 2 -7
2 -19 0 -25z m10 -85 c-3 -10 -5 -2 -5 17 0 19 2 27 5 18 2 -10 2 -26 0 -35z
m-34 -137 c3 -8 0 -17 -7 -19 -10 -4 -12 1 -9 14 6 23 9 24 16 5z m29 -58 c-7
-7 -12 -8 -12 -2 0 14 12 26 19 19 2 -3 -1 -11 -7 -17z m35 -25 c-3 -10 -5 -4
-5 12 0 17 2 24 5 18 2 -7 2 -21 0 -30z m-127 -3 c0 -5 -2 -10 -4 -10 -3 0 -8
5 -11 10 -3 6 -1 10 4 10 6 0 11 -4 11 -10z m137 -67 c-3 -10 -5 -4 -5 12 0
17 2 24 5 18 2 -7 2 -21 0 -30z m-2390 -15 c-3 -8 -6 -5 -6 6 -1 11 2 17 5 13
3 -3 4 -12 1 -19z m2400 -40 c-3 -8 -6 -5 -6 6 -1 11 2 17 5 13 3 -3 4 -12 1
-19z m10 -50 c-3 -8 -6 -5 -6 6 -1 11 2 17 5 13 3 -3 4 -12 1 -19z m10 -50
c-3 -7 -5 -2 -5 12 0 14 2 19 5 13 2 -7 2 -19 0 -25z m53 -168 c-1 -13 -22 35
-35 77 -25 81 -16 83 10 3 14 -41 25 -77 25 -80z m-2510 88 c0 -12 -3 -18 -7
-15 -3 4 -15 0 -25 -10 -10 -9 -21 -13 -25 -10 -3 4 -1 7 6 7 7 0 9 5 6 10 -4
6 -3 10 2 9 20 -4 27 2 13 12 -13 9 -12 10 3 5 9 -3 17 -1 17 4 0 6 2 10 5 10
3 0 5 -10 5 -22z m1906 -129 c6 -10 -17 -12 -40 -3 -9 3 -14 10 -11 14 6 10
43 1 51 -11z m554 -90 c0 -14 -17 -10 -23 5 -4 10 -1 13 9 9 7 -3 14 -9 14
-14z m159 -144 c0 -5 -6 1 -14 15 -8 14 -14 30 -14 35 0 6 6 -1 14 -15 8 -14
14 -29 14 -35z m-2852 32 c0 -8 -6 -14 -14 -14 -9 0 -10 4 -2 14 6 7 12 13 14
13 1 0 2 -6 2 -13z m1864 -44 c-12 -20 -14 -14 -5 12 4 9 9 14 11 11 3 -2 0
-13 -6 -23z m806 -89 c-3 -3 -12 -4 -19 -1 -8 3 -5 6 6 6 11 1 17 -2 13 -5z
m66 -11 c-7 -2 -21 -2 -30 0 -10 3 -4 5 12 5 17 0 24 -2 18 -5z m75 -10 c-10
-2 -26 -2 -35 0 -10 3 -2 5 17 5 19 0 27 -2 18 -5z m-2761 -9 c-3 -3 -12 -4
-19 -1 -8 3 -5 6 6 6 11 1 17 -2 13 -5z m13 -38 c0 -2 -7 -7 -16 -10 -8 -3
-12 -2 -9 4 6 10 25 14 25 6z m-193 -315 c0 -11 -5 -18 -9 -15 -4 3 -5 11 -1
19 7 21 12 19 10 -4z m1523 -146 c-7 -8 -17 -15 -23 -15 -6 0 -2 7 9 15 25 19
30 19 14 0z m-40 -29 c0 -2 -8 -10 -17 -17 -16 -13 -17 -12 -4 4 13 16 21 21
21 13z"/>
<path d="M6470 6981 c-222 -110 -279 -155 -326 -256 -19 -39 -24 -67 -24 -132
0 -120 6 -125 50 -35 52 107 112 182 227 284 93 82 223 209 213 207 -3 0 -66
-31 -140 -68z"/>
<path d="M4023 6358 c-18 -6 -33 -14 -33 -18 0 -22 45 -59 85 -71 25 -8 69
-31 97 -52 l51 -39 -6 57 c-7 68 -27 102 -72 121 -39 16 -76 17 -122 2z"/>
</g>
 </mask>
</defs>
<circle cx="512" cy="512" r="448" fill="#B30D3D" mask="url(#griffin-cutout)"/>
</svg>
